<svg viewBox="0 0 100 100" xmlns="http://www.w3.org/2000/svg" fill-rule="evenodd" clip-rule="evenodd" stroke-linejoin="round" stroke-miterlimit="1.414"><path d="M83.436 24.118c0-.083-.082-.083-.082-.165 0 0 0-.083-.083-.083-.082-.083-.165-.083-.165-.165h-.082l-9.577-3.798v-.082c0-.66-.33-1.982-2.807-2.973-1.982-.825-4.624-1.073-7.1-.908l-4.871-1.981c0-.66-.33-1.982-2.807-2.972-3.22-1.321-8.339-1.321-11.559 0-2.394.99-2.807 2.311-2.807 2.972l-4.87 1.981c-2.477-.165-5.12.165-7.1.908-2.395.991-2.808 2.312-2.808 2.973v.082l-9.66 3.88h-.082a.178.178 0 0 0-.165.166s0 .082-.082.082c-.083.083-.083.083-.083.165v.083c0 .082-.083.165-.083.247v12.054c0 .33.166.66.496.743L32.58 43.52c-1.156.165-2.23.413-3.137.743-2.395.99-2.807 2.312-2.807 2.972v.083l-9.66 3.88h-.082a.178.178 0 0 0-.165.165l-.083.083c-.083.082-.083.082-.083.165v.082c0 .083-.082.166-.082.248v24.19c0 .33.165.66.495.743L49.67 89.917c.082 0 .165.083.33.083s.248 0 .33-.083l32.694-13.044c.33-.165.495-.413.495-.743V52.023c0-.083 0-.165-.083-.248v-.083c0-.082-.082-.082-.082-.165 0 0 0-.082-.083-.082l-.165-.165h-.082l-9.577-3.798v-.083c0-.66-.33-1.981-2.807-2.972-.908-.413-1.982-.66-3.137-.743l15.52-6.192c.33-.165.496-.413.496-.743V24.53c0-.082-.083-.247-.083-.412 0 .082 0 .082 0 0zm-24.85-8.339l1.734.66c-.413.083-.826.248-1.238.413-.166.083-.33.166-.413.166v-1.239h-.083zm1.073 2.642c2.807-1.156 7.513-1.156 10.32 0 1.321.495 1.734 1.073 1.734 1.404 0 .33-.495.908-1.734 1.403-2.807 1.156-7.513 1.156-10.32 0-1.32-.495-1.733-1.073-1.733-1.403 0-.33.412-.909 1.733-1.404zm-1.733 3.798c.33.165.66.413 1.156.578 1.65.66 3.715.99 5.779.99s4.128-.33 5.779-.99c.413-.165.825-.33 1.156-.578v2.311c0 .33-.496.909-1.734 1.404-2.807 1.156-7.513 1.156-10.32 0-.495-.165-.826-.413-1.073-.578-.083-.33-.248-.826-.66-1.238v-1.9h-.083zm-13.127-9.66c1.403-.578 3.302-.825 5.201-.825 1.899 0 3.798.247 5.201.825 1.321.496 1.734 1.074 1.734 1.404 0 .33-.495.908-1.734 1.403-2.807 1.156-7.513 1.156-10.32 0-1.32-.495-1.733-1.073-1.733-1.403-.083-.33.412-.908 1.65-1.404zm-1.734 3.798c.33.248.66.413 1.156.578 1.651.66 3.715.99 5.779.99s4.128-.33 5.78-.99c.412-.165.825-.33 1.155-.578v1.816a3.245 3.245 0 0 0-.66 1.321c-.248.165-.578.413-1.074.578-2.807 1.156-7.513 1.156-10.32 0a5.497 5.497 0 0 1-.99-.495 2.6 2.6 0 0 0-.743-1.404v-1.816h-.083zm1.734 7.926c1.403-.578 3.302-.826 5.201-.826 1.899 0 3.798.248 5.201.826 1.321.495 1.734 1.073 1.734 1.403 0 .33-.495.908-1.734 1.404-2.807 1.156-7.513 1.156-10.32 0-1.32-.496-1.733-1.073-1.733-1.404-.083-.33.412-.908 1.65-1.403zm-.991-1.321v-1.486c.165.082.248.082.413.165.578.248 1.238.413 1.981.578-.66.165-1.403.33-1.981.578-.165 0-.248.082-.413.165zm9.99-.743c.66-.165 1.403-.33 1.981-.578.165-.083.33-.165.413-.165v1.568a.454.454 0 0 0-.413-.247c-.578-.248-1.238-.413-1.981-.578zm-10.733 5.944c.33.165.66.413 1.156.578 1.651.66 3.715.99 5.779.99s4.128-.33 5.78-.99c.412-.165.825-.33 1.155-.578v2.312c0 .33-.495.908-1.734 1.403-2.807 1.156-7.513 1.156-10.32 0-1.238-.495-1.733-1.073-1.733-1.403v-2.312h-.083zm-1.651-12.384v1.239c-.165-.083-.248-.083-.413-.166-.413-.165-.826-.33-1.32-.412l1.733-.66zm-11.31 2.642c1.403-.578 3.302-.826 5.2-.826 1.9 0 3.798.248 5.202.826 1.32.495 1.733 1.073 1.733 1.404 0 .33-.495.908-1.733 1.403-2.807 1.156-7.513 1.156-10.32 0-1.321-.495-1.734-1.073-1.734-1.403-.165-.33.33-.909 1.651-1.404zm-1.817 3.798c.33.165.66.413 1.156.578 1.65.66 3.715.99 5.779.99s4.128-.33 5.779-.99c.413-.165.826-.33 1.156-.578v1.816a2.72 2.72 0 0 0-.743 1.321c-.248.165-.578.33-1.073.495-2.807 1.156-7.513 1.156-10.32 0-1.321-.495-1.734-1.073-1.734-1.403v-2.229zm-1.651-.578v2.972c0 .66.495 1.899 2.807 2.807 1.65.66 3.715.99 5.779.99s4.128-.33 5.779-.99c.165-.083.248-.083.413-.165v3.22c.082.66.495 1.899 2.807 2.807 1.651.66 3.715.99 5.779.99s4.128-.33 5.78-.99c2.31-.908 2.724-2.147 2.806-2.807v-3.22c.165.082.248.165.413.165 1.651.66 3.715.99 5.78.99 2.063 0 4.127-.33 5.778-.99 2.312-.908 2.725-2.147 2.807-2.807v-2.89l7.1 2.807L50 36.667 19.536 24.53l7.1-2.89zM55.2 51.775c1.321.495 1.734 1.073 1.734 1.404 0 .33-.495.908-1.734 1.403-2.807 1.156-7.513 1.156-10.32 0-1.32-.495-1.733-1.073-1.733-1.403 0-.33.495-.909 1.733-1.404 1.404-.578 3.303-.826 5.202-.826 1.816 0 3.715.248 5.118.826zm-1.403-2.064c.66-.165 1.403-.33 1.981-.578.165-.082.33-.165.413-.165v1.569c-.165-.083-.248-.166-.413-.166-.578-.33-1.238-.495-1.981-.66zM50 57.141c2.064 0 4.128-.33 5.78-.99.412-.165.825-.33 1.155-.578v2.311c0 .33-.495.909-1.734 1.404-2.807 1.156-7.513 1.156-10.32 0-1.238-.495-1.733-1.073-1.733-1.404v-2.312c.33.166.66.414 1.155.579 1.569.66 3.633.99 5.697.99zm-6.192-6.687v-1.486c.165.083.248.083.413.165.578.248 1.238.413 1.981.578-.66.165-1.32.33-1.981.578-.165 0-.248.082-.413.165zM18.132 36.006V25.77l31.042 12.384v10.32L18.132 36.006zm11.971 9.907c1.404-.578 3.303-.825 5.201-.825.413 0 .743 0 1.156.082l5.78 2.312c-.083.33-.579.826-1.734 1.32-2.807 1.157-7.513 1.157-10.32 0-1.321-.494-1.734-1.072-1.734-1.403-.165-.412.33-.99 1.651-1.486zm-1.816 3.798c.33.165.66.413 1.156.578 1.65.66 3.715.99 5.779.99s4.128-.33 5.779-.99c.413-.165.826-.33 1.156-.578v1.816a2.72 2.72 0 0 0-.743 1.321c-.248.165-.578.33-1.073.496-2.807 1.155-7.513 1.155-10.32 0-1.321-.496-1.734-1.074-1.734-1.404v-2.229zm20.887 38.308L18.132 75.635v-10.32l31.042 12.384v10.32zm0-12.054L18.132 63.58V53.26l31.042 12.384v10.32zm32.694-.413L50.826 88.02V77.7l31.042-12.384v10.237zm0-12.054L50.826 75.965v-10.32l31.042-12.384v10.237zm-8.504-11.393v-2.889l7.1 2.807L50 64.159 19.536 52.023l7.1-2.807v2.972c0 .66.495 1.899 2.807 2.807 1.65.66 3.715.99 5.779.99s4.128-.33 5.779-.99c.165-.083.248-.083.413-.165v3.22c.082.66.495 1.898 2.807 2.807 1.651.66 3.715.99 5.779.99s4.128-.33 5.78-.99c2.31-.909 2.724-2.147 2.806-2.807v-3.22c.165.082.248.165.413.165 1.651.66 3.715.99 5.78.99 2.063 0 4.127-.33 5.778-.99 2.312-.908 2.807-2.147 2.807-2.89zm-1.65-.165s0 .083 0 0c0 .413-.496.99-1.735 1.486-2.807 1.156-7.513 1.156-10.32 0-.495-.165-.825-.413-1.073-.578-.082-.33-.248-.825-.66-1.238v-1.9c.33.165.66.413 1.156.578 1.65.66 3.715.99 5.779.99s4.128-.33 5.779-.99c.413-.165.825-.33 1.156-.578v2.23h-.083zm-1.735-6.027c1.321.496 1.734 1.074 1.734 1.404 0 .33-.495.908-1.734 1.403-2.807 1.156-7.513 1.156-10.32 0-1.238-.495-1.65-.99-1.733-1.32l5.779-2.312c.413 0 .743-.083 1.156-.083 1.816 0 3.715.33 5.118.908zm11.889-9.907L50.826 48.473v-10.32l31.042-12.384v10.237z" fill-rule="nonzero"/></svg>