<svg viewBox="0 0 87 84" xmlns="http://www.w3.org/2000/svg" xmlns:serif="http://www.serif.com/" fill-rule="evenodd" clip-rule="evenodd" stroke-linejoin="round" stroke-miterlimit="1.414"><g serif:id="Ebene 2" fill="#1a1918" fill-rule="nonzero"><path d="M63.8 34.714c-3.938-4.043-9.519-6.457-14.927-6.457-11.281 0-20.457 9.178-20.457 20.458 0 11.281 9.176 20.459 20.457 20.459 5.11 0 10.013-1.912 13.803-5.384l1.065-.975-4.038-5.204-1.257 1.193a13.85 13.85 0 0 1-9.573 3.829c-7.674 0-13.916-6.244-13.916-13.918 0-7.673 6.242-13.916 13.916-13.916a13.81 13.81 0 0 1 9.973 4.208l.893.917 5.105-4.139-1.044-1.071z"/><path d="M52.032 14.056c-19.118-1.763-36.106 12.356-37.87 31.475-1.763 19.118 12.356 36.111 31.474 37.874.817.075 1.629.112 2.441.13l.29-6.27a28.815 28.815 0 0 1-2.153-.109C30.542 75.71 18.966 61.783 20.412 46.107c1.445-15.671 15.373-27.247 31.044-25.802 7.732.713 14.682 4.428 19.57 10.465l4.864-3.944c-5.956-7.066-14.662-11.922-23.858-12.77"/><path d="M77.376 9.21C55.54-6.541 24.96-1.59 9.209 20.247-1.029 34.441-2.873 53.158 4.392 69.105l5.711-2.605C3.768 52.606 5.377 36.288 14.3 23.918 28.025 4.889 54.676.574 73.704 14.3a42.365 42.365 0 0 1 8.058 7.624l1.121-.77 3.784-3.069c-2.684-3.345-5.792-6.352-9.291-8.875"/></g></svg>