<svg viewBox="0 0 500 500" xmlns="http://www.w3.org/2000/svg" fill-rule="evenodd" clip-rule="evenodd" stroke-linejoin="round" stroke-miterlimit="1.414"><g fill-rule="nonzero"><path d="M56.636 201.327v33.098c0 5.232-4.325 9.487-9.643 9.487H21.937c-5.318 0-9.643-4.259-9.643-9.491v-33.094H-.088v33.098c0 6.112 2.602 11.632 6.752 15.575a21.435 21.435 0 0 0-6.752 15.575v33.098h12.382v-33.098c0-5.232 4.325-9.483 9.643-9.483h25.052c5.322 0 9.647 4.255 9.647 9.487v33.094h12.382v-33.098c0-6.108-2.602-11.628-6.752-15.575a21.443 21.443 0 0 0 6.752-15.575v-33.098H56.636zm79.784-4.056h-25.044c-12.155 0-22.033 9.572-22.033 21.343v58.716c0 11.771 9.878 21.343 22.028 21.343h25.049c12.151 0 22.029-9.572 22.029-21.343v-58.716c0-11.771-9.878-21.343-22.029-21.343zm9.647 80.059c0 5.151-4.33 9.345-9.647 9.345h-25.044c-5.318 0-9.647-4.19-9.647-9.345v-58.716c0-5.151 4.329-9.345 9.647-9.345h25.048c5.317 0 9.647 4.194 9.647 9.345v58.716h-.004zm161.089-80.059h-25.057c-12.142 0-22.024 9.572-22.024 21.343v58.716c0 11.771 9.878 21.343 22.024 21.343h25.057c12.142 0 22.024-9.572 22.024-21.343v-58.716c0-11.771-9.878-21.343-22.024-21.343zm9.638 80.059c0 5.151-4.321 9.345-9.638 9.345h-25.057c-5.317 0-9.638-4.19-9.638-9.345v-58.716c0-5.151 4.321-9.345 9.638-9.345h25.057c5.317 0 9.638 4.194 9.638 9.345v58.716zm161.09-80.059h-25.049c-12.15 0-22.029 9.572-22.029 21.343v58.716c0 11.771 9.879 21.343 22.029 21.343h25.049c12.146 0 22.028-9.572 22.028-21.343v-58.716c0-11.771-9.882-21.343-22.032-21.343h.004zm9.646 80.059c0 5.151-4.329 9.345-9.646 9.345h-25.049c-5.317 0-9.646-4.19-9.646-9.345v-58.716c0-5.151 4.329-9.345 9.646-9.345h25.049c5.317 0 9.646 4.194 9.646 9.345v58.716zm-95.016-80.059h-47.073v101.402h47.077c12.15 0 22.028-9.572 22.028-21.343v-58.716c0-11.771-9.878-21.343-22.028-21.343h-.004zm9.642 80.059c0 5.151-4.321 9.345-9.642 9.345h-34.691v-77.406h34.691c5.321 0 9.642 4.194 9.642 9.345v58.716zm-196.537-26.446v-.012h-5.573c-5.134 0-9.313-4.255-9.313-9.487v-40.058h-11.959v97.346h11.959v-37.839a20.794 20.794 0 0 0 9.309 2.219h4.46c2.536 0 4.601.064 6.374.308 6.394.876 8.918 4.137 15.447 15.51.841 1.46 1.748 3.059 2.735 4.799a751.663 751.663 0 0 0 8.602 14.869l5.11-3.159 5.11-3.164c-3.358-5.634-6.074-10.416-8.468-14.643-10.813-19.051-15-26.405-33.788-26.689h-.005z"/><path d="M-.088 310.841h69.106v4.056H-.088v-4.056zm178.862-125.738h69.106v4.056h-69.106v-4.056z" fill="#c98a29"/><path d="M243.815 208.944l-10.521-3.561-13.87 34.42c4.289.625 7.574 1.866 10.415 3.825l13.976-34.684z"/></g></svg>