<svg viewBox="0 0 100 100" xmlns="http://www.w3.org/2000/svg" fill-rule="evenodd" clip-rule="evenodd" stroke-linejoin="round" stroke-miterlimit="1.414"><path d="M86 10H54c-2.194 0-4 1.806-4 4v24c0 2.194 1.806 4 4 4h10.147l-2.08 6.24c-.134.406-.065.853.186 1.2.249.349.652.558 1.08.56h13.334a1.337 1.337 0 0 0 1.08-.56c.251-.347.32-.794.186-1.2L75.853 42H86c2.194 0 4-1.806 4-4V14c0-2.194-1.806-4-4-4zm-32 2.667h32A1.34 1.34 0 0 1 87.333 14v17.333H52.667V14A1.34 1.34 0 0 1 54 12.667zm20.813 34.666h-9.626L66.96 42h6.08l1.773 5.333zm11.187-8H54A1.34 1.34 0 0 1 52.667 38v-4h34.666v4A1.34 1.34 0 0 1 86 39.333z" fill-rule="nonzero"/><path d="M68.667 52.667h2.667v2.667h-2.667zm0 5.333h2.667v2.667h-2.667zm0 5.333h2.667V66h-2.667zm0 5.334h2.667v2.667h-2.667zm-5.334 0H66v2.667h-2.667zm-5.333 0h2.667v2.667H58zm-5.333 0h2.667v2.667h-2.667zm-24-24h2.667v2.667h-2.667zm0-5.334h2.667V42h-2.667zm0-5.333h2.667v2.667h-2.667zm0-5.333h2.667v2.667h-2.667zm5.333 0h2.667v2.667H34zm5.333 0H42v2.667h-2.667zm5.334 0h2.667v2.667h-2.667z"/><path d="M14 82h10.147l-2.08 6.24c-.134.406-.065.853.186 1.2.249.349.652.558 1.08.56h13.334a1.337 1.337 0 0 0 1.08-.56c.251-.347.32-.794.186-1.2L35.853 82H46c2.194 0 4-1.806 4-4V54c0-2.194-1.806-4-4-4H14c-2.194 0-4 1.806-4 4v24c0 2.194 1.806 4 4 4zm20.813 5.333h-9.626L26.96 82h6.08l1.773 5.333zm11.187-8H14A1.34 1.34 0 0 1 12.667 78v-4h34.666v4A1.34 1.34 0 0 1 46 79.333zM14 52.667h32A1.34 1.34 0 0 1 47.333 54v17.333H12.667V54A1.34 1.34 0 0 1 14 52.667z" fill-rule="nonzero"/></svg>