<svg viewBox="0 0 100 100" xmlns="http://www.w3.org/2000/svg" fill-rule="evenodd" clip-rule="evenodd" stroke-linejoin="round" stroke-miterlimit="1.414"><path d="M37.05 77.25a5.757 5.757 0 0 0-5.685-4.962 5.74 5.74 0 0 0-4.265 1.9 10.135 10.135 0 0 0-6.006-.626 6.63 6.63 0 0 0-2.919-2.4c.352-.88.533-1.82.531-2.768-.02-4.078-3.379-7.422-7.456-7.425-.686 0-1.25.564-1.25 1.25 0 .685.564 1.25 1.25 1.25 2.717.003 4.953 2.238 4.956 4.956a4.923 4.923 0 0 1-.9 2.825 1.252 1.252 0 0 0 .863 1.956 4.072 4.072 0 0 1 3.162 2.344c.25.539.41 1.116.475 1.706 0 .686.565 1.25 1.25 1.25.686 0 1.25-.564 1.25-1.25a5.337 5.337 0 0 0-.194-1.306 7.639 7.639 0 0 1 4.763.925c.59.334 1.35.13 1.694-.456a3.223 3.223 0 0 1 2.79-1.614c1.375 0 2.605.88 3.047 2.182a5.46 5.46 0 0 0-2.444.726 1.251 1.251 0 0 0-.556 1.04c0 .685.564 1.25 1.25 1.25.222 0 .44-.06.631-.172a4.371 4.371 0 0 1 2.37-.337 4.056 4.056 0 0 1 3.244 3.963A4.062 4.062 0 0 1 34.97 87.5c-.686 0-1.25.564-1.25 1.25S34.284 90 34.97 90h.007c3.59 0 6.543-2.954 6.543-6.544a6.558 6.558 0 0 0-4.469-6.206zm51.7-16.281c-4.088.003-7.45 3.368-7.45 7.456 0 .946.18 1.884.531 2.763a6.63 6.63 0 0 0-2.919 2.4 10.125 10.125 0 0 0-6.006.625 5.74 5.74 0 0 0-4.265-1.9 5.757 5.757 0 0 0-5.685 4.962 6.557 6.557 0 0 0-4.397 6.182c0 3.562 2.91 6.504 6.472 6.543.686 0 1.25-.564 1.25-1.25s-.564-1.25-1.25-1.25c-2.212-.009-4.028-1.831-4.028-4.044a4.057 4.057 0 0 1 3.372-3.987 1.255 1.255 0 0 0 1.044-1.294v-.155a3.247 3.247 0 0 1 3.231-3.231c.776 0 1.526.28 2.112.786a8.57 8.57 0 0 0-1.68 2.125 1.248 1.248 0 0 0-.158.606c0 .687.565 1.25 1.251 1.25.454 0 .874-.247 1.094-.643a6.084 6.084 0 0 1 1.875-2.063 7.64 7.64 0 0 1 6-.625c.601.192 1.258-.1 1.518-.675a4.072 4.072 0 0 1 3.163-2.344h.112a3.566 3.566 0 0 1 1.875.188 1.256 1.256 0 0 0 1.7-1.166c0-.492-.29-.94-.737-1.14a5.81 5.81 0 0 0-2.438-.425 4.909 4.909 0 0 1-.537-2.225c-.003-2.72 2.23-4.962 4.95-4.97.686 0 1.25-.564 1.25-1.25 0-.685-.564-1.25-1.25-1.25zM61.588 39.25v-.969c0-6.825-2.575-15.35-5.532-21.25a1.054 1.054 0 0 0-.231-.45C53.812 12.656 51.637 10 50 10c-2.106 0-4.375 3.606-5.944 6.725a1.066 1.066 0 0 0-.081.162 55.016 55.016 0 0 0-1.363 2.963C39.932 26.181 38.4 32.9 38.4 38.288v.968c-3.969 2.913-5 4.963-5 13.982a20.463 20.463 0 0 0 1.169 7.006 1.253 1.253 0 0 0 1.962.487l5.956-5c.465.781.999 1.52 1.594 2.206.237.27.579.425.938.425h3.731v1.444c0 .686.564 1.25 1.25 1.25s1.25-.564 1.25-1.25V58.32h3.712c.36 0 .701-.156.938-.425a15.433 15.433 0 0 0 1.6-2.2l5.956 5a1.249 1.249 0 0 0 1.963-.488c.795-2.25 1.19-4.62 1.168-7.006 0-8.994-1.03-11.038-5-13.95zM50 12.5c.544.275 1.406 1.362 2.387 3.013a28.796 28.796 0 0 0-2.375-.082c-.925 0-1.756.031-2.43.088.98-1.644 1.855-2.738 2.418-3.019zm-3.9 5.769a16.942 16.942 0 0 1 3.9-.313 17.453 17.453 0 0 1 3.85.325c2.55 5.194 5.25 13.025 5.25 20 0 1.953-.136 3.904-.406 5.838a42.53 42.53 0 0 0-1.738-.125c-1.562-.094-3.556-.144-5.706-.163v-3.944c0-.685-.564-1.25-1.25-1.25s-1.25.565-1.25 1.25v3.95c-2.15 0-4.144.076-5.706.163-.625.038-1.25.075-1.738.125a42.023 42.023 0 0 1-.406-5.837c0-7.038 2.656-14.832 5.187-19.988l.013-.031zm-9.719 39.319a21.14 21.14 0 0 1-.468-4.376c0-7.1.556-9.087 2.668-10.943.1 1.143.244 2.262.431 3.35.002.158.034.315.094.462a32.052 32.052 0 0 0 2.213 7.313l-4.938 4.194zm9.244-1.77c-1.744-2.174-3.081-5.424-3.881-9.218 1.25-.119 3.662-.244 7.012-.269v9.488h-3.131zm8.75 0H51.25v-9.487c3.35 0 5.75.144 7.012.269-.8 3.8-2.137 7.044-3.887 9.219zm9.238 1.77l-4.925-4.163a32.052 32.052 0 0 0 2.212-7.313 1.25 1.25 0 0 0 .094-.462c.187-1.088.331-2.206.431-3.35 2.112 1.875 2.669 3.844 2.669 10.944a21.1 21.1 0 0 1-.475 4.343h-.007zM50 63.244c-.686 0-1.25.564-1.25 1.25v18.319c0 .685.564 1.25 1.25 1.25s1.25-.565 1.25-1.25v-18.32c0-.685-.564-1.25-1.25-1.25z" fill-rule="nonzero"/><path d="M45.144 60.394c-.686 0-1.25.564-1.25 1.25v8.2c0 .685.564 1.25 1.25 1.25.685 0 1.25-.565 1.25-1.25v-8.2c0-.686-.565-1.25-1.25-1.25zm9.712 0c-.685 0-1.25.564-1.25 1.25v8.2c0 .685.565 1.25 1.25 1.25.686 0 1.25-.565 1.25-1.25v-8.2c0-.686-.564-1.25-1.25-1.25zM50 35.794c3.048 0 5.556-2.508 5.556-5.556 0-3.049-2.508-5.557-5.556-5.557s-5.556 2.508-5.556 5.557c.003 3.046 2.51 5.553 5.556 5.556zm0-8.606a3.07 3.07 0 0 1 3.056 3.056A3.07 3.07 0 0 1 50 33.3a3.07 3.07 0 0 1-3.056-3.056A3.07 3.07 0 0 1 50 27.187z" fill-rule="nonzero"/></svg>